<?xml version="1.0" encoding="UTF-8"?>
<svg width="1200pt" height="1200pt" version="1.1" viewBox="0 0 1200 1200" xmlns="http://www.w3.org/2000/svg">
 <g>
  <path d="m597.02 122.83c-263.41 0-477.71 214.3-477.71 477.71 0 73.738 16.992 143.46 46.957 205.85-14.484 14.605-14.461 38.207 0.10937 52.754 7.2969 7.2969 16.871 10.957 26.449 10.957 9.5625 0 19.152-3.6602 26.449-10.957l539.89-539.89c14.605-14.605 14.605-38.281 0-52.883-14.617-14.605-38.27-14.605-52.895 0l-503.88 503.89c-22.5-52.105-35.074-109.43-35.074-169.71 0-236.94 192.76-429.71 429.71-429.71 236.95-0.003907 429.7 192.77 429.7 429.7 0 236.94-192.77 429.71-429.71 429.71-138.06 0-261.04-65.508-339.71-167.02l-34.164 34.176c87.59 110.09 222.57 180.84 373.86 180.84 263.4 0 477.72-214.29 477.72-477.71 0-263.42-214.3-477.71-477.71-477.71z"/>
  <path d="m778.09 329.16s-101.63 101.16-181.07 183.76c52.598 41.074 115.13 187.84 62.977 253.99 56.879-40.727 124.97-100.68 190.5-149.07 42.621-33.82 4.9648-242.25-72.41-288.68z"/>
  <path d="m485.51 748.46c55.176-42.781 74.172 3.4336 101.58 28.246 18.648 16.895 44.699 11.809 60.84-19.273 20.762-39.984 14.809-89.195-6.7422-139.61 0 0.003906-126.59 95.309-155.68 130.64z"/>
  <path d="m647.75 796.57c-55.957 36.121-76.895-10.309-92.316-24.742-10.188-9.5156-43.273-32.426-59.016-4.9688-33.625 58.668 183.37 222.47 207.42 208.74 24.023-13.738 0.88672-142.85 11.148-224.22-5.2695 4.0586-19.332 14.281-67.238 45.191z"/>
 </g>
</svg>
